<svg width="304" height="364" viewBox="0 0 304 364" fill="none" xmlns="http://www.w3.org/2000/svg">
<path d="M295.751 64.4574C272.082 64.4574 254.12 50.6054 235.099 35.9423C213.249 19.0951 188.483 0 151.668 0C114.852 0 90.0868 19.0951 68.2346 35.9423C49.2155 50.6054 31.2522 64.4574 7.5836 64.4574C3.39687 64.4574 0 67.8528 0 72.041C0 160.585 11.0274 219.543 35.756 263.209C60.3105 306.567 96.862 333.533 147.876 362.985C149.049 363.663 150.357 364.001 151.667 364.001C152.977 364.001 154.285 363.662 155.458 362.985C206.473 333.533 243.024 306.568 267.579 263.209C292.307 219.543 303.334 160.585 303.334 72.041C303.335 67.8528 299.938 64.4574 295.751 64.4574Z" fill="#002B41"/>
<path fill-rule="evenodd" clip-rule="evenodd" d="M302.749 105.698C276.447 112.106 248.13 119.086 237.277 122.016C233.909 122.925 229.782 123.968 225.128 125.144C200.411 131.392 160.839 141.396 141.225 155.01C131.742 161.592 135.468 169.589 139.033 177.243C141.684 182.935 144.247 188.436 141.225 193.025C134.139 203.784 108.945 216.363 93.1989 222.432C85.9085 225.242 56.1721 234.829 26.3369 244.315C29.2232 250.926 32.361 257.212 35.7572 263.209C43.7793 277.374 53.0819 289.79 63.751 301.114C89.9322 283.563 126.36 258.989 145.949 242.516C176.654 216.694 178.753 208.087 173.505 193.742C171.887 189.319 169.37 185.578 167.085 182.182C161.96 174.565 158.005 168.686 167.994 160.748C188.458 144.485 235.395 132.003 259.27 125.654C261.301 125.113 263.166 124.617 264.833 124.167C271.991 122.235 287.211 117.736 302.439 113.173C302.553 110.708 302.656 108.217 302.749 105.698Z" fill="#2EC681"/>
</svg>
