<svg width="1587" height="364" viewBox="0 0 1587 364" fill="none" xmlns="http://www.w3.org/2000/svg">
<path d="M849.751 64.4574C826.082 64.4574 808.12 50.6054 789.099 35.9423C767.249 19.0951 742.483 0 705.668 0C668.852 0 644.087 19.0951 622.235 35.9423C603.216 50.6054 585.252 64.4574 561.584 64.4574C557.397 64.4574 554 67.8528 554 72.041C554 160.585 565.027 219.543 589.756 263.209C614.31 306.567 650.862 333.533 701.876 362.985C703.049 363.663 704.357 364.001 705.667 364.001C706.977 364.001 708.285 363.662 709.458 362.985C760.473 333.533 797.024 306.568 821.579 263.209C846.307 219.543 857.334 160.585 857.334 72.041C857.335 67.8528 853.938 64.4574 849.751 64.4574Z" fill="#002B41"/>
<path fill-rule="evenodd" clip-rule="evenodd" d="M856.749 105.698C830.447 112.106 802.13 119.086 791.277 122.016C787.909 122.925 783.782 123.968 779.128 125.144C754.411 131.392 714.839 141.396 695.225 155.01C685.742 161.592 689.468 169.589 693.033 177.243C695.684 182.935 698.247 188.436 695.225 193.025C688.139 203.784 662.945 216.363 647.199 222.432C639.909 225.242 610.172 234.829 580.337 244.315C583.223 250.926 586.361 257.212 589.757 263.209C597.779 277.374 607.082 289.79 617.751 301.114C643.932 283.563 680.36 258.989 699.949 242.516C730.654 216.694 732.753 208.087 727.505 193.742C725.887 189.319 723.37 185.578 721.085 182.182C715.96 174.565 712.005 168.686 721.994 160.748C742.458 144.485 789.395 132.003 813.27 125.654C815.301 125.113 817.166 124.617 818.833 124.167C825.991 122.235 841.211 117.736 856.439 113.173C856.553 110.708 856.656 108.217 856.749 105.698Z" fill="#2EC681"/>
<path d="M59.8965 293C46.8832 293 36.0092 290.492 27.2743 285.477C18.5394 280.283 11.9436 272.76 7.48706 262.908C3.03048 253.057 0.53479 240.967 0 226.637L33.9592 219.921C34.3157 228.339 35.2961 235.772 36.9005 242.221C38.6831 248.669 41.268 253.684 44.655 257.266C48.2202 260.669 52.8551 262.371 58.5595 262.371C64.977 262.371 69.5227 260.49 72.1966 256.729C74.8706 252.788 76.2076 247.863 76.2076 241.952C76.2076 232.459 74.0684 224.667 69.7901 218.577C65.5118 212.487 59.8073 206.397 52.6768 200.307L25.4025 176.127C17.7372 169.499 11.5871 162.155 6.95227 154.095C2.49569 145.856 0.267395 135.736 0.267395 123.735C0.267395 106.54 5.25877 93.2852 15.2415 83.9711C25.2243 74.657 38.8614 70 56.1529 70C66.314 70 74.7815 71.612 81.5555 74.8361C88.3295 77.8811 93.6774 82.1799 97.5992 87.7325C101.699 93.2851 104.73 99.6438 106.691 106.808C108.651 113.794 109.899 121.227 110.434 129.108L76.7424 135.019C76.3858 128.213 75.5836 122.123 74.3358 116.749C73.2662 111.376 71.2162 107.167 68.1857 104.122C65.3335 101.077 61.0552 99.5542 55.3508 99.5542C49.4681 99.5542 44.9224 101.524 41.7136 105.465C38.6831 109.227 37.1679 113.973 37.1679 119.705C37.1679 127.049 38.6831 133.139 41.7136 137.975C44.7441 142.632 49.1115 147.468 54.816 152.483L81.8229 176.395C90.736 183.918 98.3122 192.784 104.551 202.994C110.969 213.025 114.178 225.204 114.178 239.534C114.178 249.923 111.86 259.147 107.225 267.207C102.769 275.267 96.4405 281.626 88.2403 286.283C80.2185 290.761 70.7705 293 59.8965 293Z" fill="#002B41"/>
<path d="M120.123 290.045L163.441 72.4181H205.689L249.007 290.045H212.374L203.818 239.802H166.115L157.291 290.045H120.123ZM170.126 214.547H199.539L184.833 123.198L170.126 214.547Z" fill="#002B41"/>
<path d="M265.442 290.045V72.4181H354.484V99.8229H305.016V163.23H345.393V190.904H305.016V290.045H265.442Z" fill="#002B41"/>
<path d="M370.551 290.045V72.4181H461.465V100.36H410.125V162.961H450.502V190.635H410.125V262.64H462V290.045H370.551Z" fill="#002B41"/>
<path d="M947 290.045V72.4181H999.153C1013.85 72.4181 1026.22 74.2092 1036.25 77.7916C1046.47 81.1948 1054.17 87.1056 1059.37 95.5241C1064.75 103.943 1067.44 115.406 1067.44 129.914C1067.44 138.691 1066.63 146.572 1065.02 153.558C1063.4 160.543 1060.63 166.544 1056.68 171.559C1052.92 176.395 1047.63 180.157 1040.82 182.843L1071.2 290.045H1031.41L1005.07 190.366H986.787V290.045H947ZM986.787 165.38H999.153C1006.86 165.38 1012.95 164.305 1017.43 162.155C1022.09 159.827 1025.41 156.245 1027.38 151.408C1029.35 146.393 1030.34 140.035 1030.34 132.333C1030.34 121.406 1028.28 113.257 1024.15 107.883C1020.21 102.331 1012.6 99.5542 1001.3 99.5542H986.787V165.38Z" fill="#002B41"/>
<path d="M1150.41 293C1135 293 1122.72 290.134 1113.58 284.402C1104.44 278.671 1097.9 270.431 1093.95 259.684C1090.01 248.937 1088.04 236.22 1088.04 221.533V140.124C1088.04 125.437 1090.01 112.898 1093.95 102.51C1097.9 91.9418 1104.44 83.8815 1113.58 78.3289C1122.72 72.7763 1135 70 1150.41 70C1166.18 70 1178.55 72.7763 1187.51 78.3289C1196.65 83.8815 1203.19 91.9418 1207.13 102.51C1211.26 112.898 1213.32 125.437 1213.32 140.124V221.801C1213.32 236.31 1211.26 248.937 1207.13 259.684C1203.19 270.252 1196.65 278.492 1187.51 284.402C1178.55 290.134 1166.18 293 1150.41 293ZM1150.41 263.714C1157.04 263.714 1161.88 262.282 1164.93 259.416C1168.15 256.55 1170.3 252.609 1171.38 247.594C1172.45 242.579 1172.99 237.116 1172.99 231.205V130.989C1172.99 124.899 1172.45 119.436 1171.38 114.6C1170.3 109.764 1168.15 106.002 1164.93 103.316C1161.88 100.45 1157.04 99.0169 1150.41 99.0169C1144.14 99.0169 1139.39 100.45 1136.16 103.316C1132.94 106.002 1130.78 109.764 1129.71 114.6C1128.63 119.436 1128.1 124.899 1128.1 130.989V231.205C1128.1 237.116 1128.54 242.579 1129.44 247.594C1130.52 252.609 1132.67 256.55 1135.89 259.416C1139.12 262.282 1143.96 263.714 1150.41 263.714Z" fill="#002B41"/>
<path d="M1297.05 293C1280.92 293 1268.38 290.045 1259.41 284.134C1250.45 278.223 1244.27 269.804 1240.87 258.878C1237.46 247.952 1235.76 234.877 1235.76 219.652V72.4181H1274.47V224.219C1274.47 231.026 1274.92 237.474 1275.81 243.564C1276.71 249.475 1278.77 254.311 1282 258.072C1285.4 261.655 1290.42 263.446 1297.05 263.446C1304.04 263.446 1309.06 261.655 1312.11 258.072C1315.33 254.311 1317.39 249.475 1318.29 243.564C1319.36 237.474 1319.9 231.026 1319.9 224.219V72.4181H1358.34V219.652C1358.34 234.877 1356.64 247.952 1353.24 258.878C1349.83 269.804 1343.65 278.223 1334.69 284.134C1325.91 290.045 1313.36 293 1297.05 293Z" fill="#002B41"/>
<path d="M1406.04 290.045V101.704H1371.36V72.4181H1479.97V101.704H1445.82V290.045H1406.04Z" fill="#002B41"/>
<path d="M1494.4 290.045V72.4181H1585.8V100.36H1534.19V162.961H1574.78V190.635H1534.19V262.64H1586.34V290.045H1494.4Z" fill="#002B41"/>
</svg>
